<svg width="70" height="70" viewBox="0 0 70 70" fill="none" xmlns="http://www.w3.org/2000/svg">
<g clip-path="url(#clip0)">
<path d="M32.0825 67.0378C14.3935 67.0378 0 52.6448 0 34.9558C0 17.2668 14.3935 2.87329 32.0825 2.87329C38.2336 2.87329 44.2181 4.62601 49.3892 7.94508C50.4044 8.59874 50.7019 9.952 50.0482 10.9699C49.3924 11.9878 48.0418 12.282 47.0239 11.6289C42.5615 8.76163 37.3935 7.24816 32.0825 7.24816C16.8052 7.24816 4.37486 19.6785 4.37486 34.9558C4.37486 50.2326 16.8052 62.6629 32.0825 62.6629C47.3593 62.6629 59.7896 50.2326 59.7896 34.9558C59.7896 34.0426 59.7458 33.1385 59.6615 32.2493C59.545 31.0445 60.4257 29.9769 61.6273 29.8605C62.8347 29.7494 63.8991 30.6247 64.016 31.8263C64.1148 32.856 64.1645 33.9 64.1645 34.9558C64.1645 52.6448 49.7715 67.0378 32.0825 67.0378Z" fill="#FFE474"/>
<path d="M35.7279 42.2471C35.1682 42.2471 34.608 42.034 34.1823 41.6057L21.0577 28.4811C20.2033 27.6261 20.2033 26.2408 21.0577 25.3863C21.9122 24.5319 23.2975 24.5319 24.152 25.3863L35.7311 36.9654L66.2643 6.43162C67.1193 5.57716 68.5046 5.57716 69.3591 6.43162C70.2135 7.28609 70.2135 8.67139 69.3591 9.52585L37.2766 41.6084C36.8477 42.034 36.2881 42.2471 35.7279 42.2471Z" fill="#FFE474"/>
</g>
<defs>
<clipPath id="clip0">
<rect width="70" height="70" fill="white"/>
</clipPath>
</defs>
</svg>
