<svg width="90" height="90" viewBox="0 0 90 90" fill="none" xmlns="http://www.w3.org/2000/svg">
<path d="M80.5092 4.37256H22.3121C17.2614 4.37256 13.1523 8.44328 13.1523 13.4306L12.7772 64.6762H1.41977C0.614878 64.6762 0 65.3879 0 66.1928V73.2454C0 79.8475 5.2834 85.2469 11.6599 85.5429V85.6276H60.668V85.5323C61.0324 85.5472 61.253 85.6276 61.5035 85.6276H61.5384C68.339 85.5878 73.821 80.0446 73.7854 73.2439V28.4211H88.5802C89.3851 28.4211 90 27.6924 90 26.8882V13.948C90.0092 8.68881 85.7684 4.41028 80.5092 4.37256V4.37256ZM12.2976 82.7126H12.2876C7.10313 82.7126 2.91498 78.4277 2.91498 73.2439V67.5912H49.1903V73.2197C49.1789 76.5005 50.4748 79.6503 52.7913 81.9732C53.0375 82.2209 53.2952 82.3483 53.5585 82.7126H12.2976ZM70.8704 73.2425C70.8704 78.4277 66.7228 82.7126 61.5362 82.7126H61.5063C56.2941 82.6749 52.0932 78.4327 52.1052 73.2205V66.1928C52.1095 65.3765 51.464 64.7047 50.6478 64.6762H15.6922L16.0673 13.4406C16.0673 10.0509 18.8684 7.28754 22.3121 7.28754H73.6281C71.9671 9.1094 70.8704 11.4145 70.8704 13.9872V73.2425ZM87.085 13.9736V25.5062H73.7854V13.9843C73.7854 10.3363 76.8199 7.28754 80.4665 7.28754H80.5071C84.1629 7.32383 87.1021 10.3064 87.085 13.963V13.9736Z" fill="#FDFDFD"/>
<path d="M34.2248 40.2476L41.7392 45.3851C42.2296 45.7232 42.8779 45.7232 43.3682 45.3851L50.8599 40.249C53.4625 38.4734 55.3847 34.7614 55.3847 31.6137V21.2191C55.4003 20.6697 55.0972 20.1601 54.6076 19.9104L43.1661 14.2825C42.7647 14.0832 42.2936 14.0832 41.8922 14.2825L30.4721 19.8947C29.9825 20.1445 29.6801 20.654 29.6964 21.2034V31.6137C29.6964 34.7614 31.6229 38.4734 34.2248 40.2476ZM32.6114 22.113L42.5406 17.2139L52.4697 22.1265V31.6137C52.4697 33.8092 51.0307 36.6017 49.2153 37.8393L42.5235 42.416L35.858 37.84C34.0426 36.601 32.6114 33.8092 32.6114 31.6137V22.113Z" fill="#FDFDFD"/>
<path d="M40.0753 33.8142C40.3472 34.0917 40.7187 34.249 41.1072 34.2512H41.1108C41.4979 34.2497 41.8687 34.0946 42.1413 33.8199L47.9392 28.0198C48.5093 27.4505 48.5093 26.5267 47.9399 25.9574C47.3713 25.3874 46.4476 25.3874 45.8782 25.9567L41.1158 30.7184L39.2121 28.7962C38.6449 28.2241 37.7218 28.2198 37.1497 28.787C36.5775 29.3542 36.5739 30.2772 37.1404 30.8494L40.0753 33.8142Z" fill="#FDFDFD"/>
<path d="M60.668 49.5547H25.6882C24.8833 49.5547 24.2307 50.2073 24.2307 51.0122C24.2307 51.8171 24.8833 52.4697 25.6882 52.4697H60.668C61.4729 52.4697 62.1254 51.8171 62.1254 51.0122C62.1254 50.2073 61.4729 49.5547 60.668 49.5547Z" fill="#FDFDFD"/>
<path d="M60.668 56.2957H25.6882C24.8833 56.2957 24.2307 56.9483 24.2307 57.7531C24.2307 58.558 24.8833 59.2106 25.6882 59.2106H60.668C61.4729 59.2106 62.1254 58.558 62.1254 57.7531C62.1254 56.9483 61.4729 56.2957 60.668 56.2957Z" fill="#FDFDFD"/>
</svg>
