<svg width="90" height="90" viewBox="0 0 90 90" fill="none" xmlns="http://www.w3.org/2000/svg">
<g clip-path="url(#clip0)">
<path d="M79.0884 31.8613C80.1872 30.7627 80.1876 28.9843 79.0886 27.8852C79.089 27.8858 79.0884 27.885 79.0884 27.885C78.5574 27.354 77.8516 27.0614 77.1005 27.0614C74.5859 27.0614 73.3584 30.1073 75.1126 31.8611C76.2087 32.9572 77.9923 32.9574 79.0884 31.8613ZM83.9925 22.9812C84.5782 23.5669 84.5781 24.5163 83.9925 25.1018C83.4068 25.6874 82.4576 25.6872 81.872 25.1018C79.235 22.4648 74.9669 22.4642 72.3295 25.1016C71.7438 25.6874 70.7944 25.6872 70.2089 25.1018C69.6233 24.5163 69.6231 23.5669 70.2089 22.9813C74.0174 19.1723 80.1829 19.1715 83.9925 22.9812ZM88.4988 19.9745C88.115 19.9745 87.7313 19.8281 87.4385 19.5353C81.7251 13.8216 72.477 13.8206 66.7627 19.5353C66.1771 20.1207 65.2278 20.1207 64.6422 19.5353C64.0565 18.9498 64.0565 18.0004 64.6422 17.4147C71.5282 10.5287 82.6728 10.5285 89.5592 17.4147C90.5066 18.3624 89.8225 19.9745 88.4988 19.9745ZM82.1461 37.2952C81.3276 37.4208 80.7658 38.1863 80.8916 39.0048C84.471 62.3246 66.8438 83.2659 43.6725 84.1427V46.4996H63.4378C62.9853 60.1157 56.4607 70.0965 50.9544 76.1441C50.0742 77.1107 50.7733 78.6531 52.0627 78.6531C52.47 78.6531 52.876 78.488 53.1719 78.1631C59.0356 71.723 65.9876 61.0733 66.4394 46.4996H73.6622C74.4903 46.4996 75.1617 45.8282 75.1617 45.0002C75.1617 44.1721 74.4903 43.5007 73.6622 43.5007H66.4384C65.8446 24.0825 53.8144 11.581 47.2019 6.15019C52.1566 6.7901 56.96 8.36962 61.3122 10.8115C62.0346 11.2173 62.9486 10.9598 63.3538 10.2374C63.759 9.51522 63.5021 8.60129 62.7797 8.19605C56.5195 4.6837 49.3938 2.82715 42.173 2.82715C18.8641 2.82715 0 21.6892 0 45.0002C0 68.3046 18.857 87.1703 42.1679 87.1732C67.9722 87.1732 87.7967 64.2205 83.8557 38.5499C83.7299 37.7312 82.9642 37.1689 82.1461 37.2952ZM40.6735 82.805C38.4592 81.1383 34.9401 78.1712 31.4821 73.9297C24.782 65.7118 21.2305 56.4901 20.9081 46.4994H40.6735V82.805ZM52.8709 16.0732C59.5672 24.2913 63.1163 33.512 63.4381 43.5007H43.6725V7.18821C45.8859 8.85433 49.4097 11.8252 52.8709 16.0732ZM40.6735 5.85761V43.5007H20.9086C21.3472 30.3337 27.4854 20.5936 32.667 14.6675C33.2121 14.044 33.1485 13.0967 32.5253 12.5517C31.9017 12.0064 30.9546 12.07 30.4094 12.6936C24.8886 19.0075 18.3453 29.4048 17.9072 43.5007H3.03046C3.80288 23.0902 20.2631 6.62984 40.6735 5.85761ZM3.03046 46.4996H17.9076C18.5029 65.9256 30.5423 78.4263 37.1569 83.854C18.4021 81.4464 3.7579 65.724 3.03046 46.4996Z" fill="#FDFDFD"/>
</g>
<defs>
<clipPath id="clip0">
<rect width="90" height="90" fill="white"/>
</clipPath>
</defs>
</svg>
