<svg width="90" height="90" viewBox="0 0 90 90" fill="none" xmlns="http://www.w3.org/2000/svg">
<path d="M88.5 80.9998H84.0001V52.4998C83.9995 51.6715 83.3273 51.0004 82.4989 51.001C82.0101 51.0014 81.5521 51.2398 81.2716 51.6403L60.2716 81.6403C59.7968 82.3193 59.9624 83.2545 60.6413 83.7291C60.8931 83.9051 61.1927 83.9996 61.5001 83.9998H81.0001V88.4998C81.0001 89.3282 81.6717 89.9998 82.5001 89.9998C83.3284 89.9998 84.0001 89.3282 84.0001 88.4998V83.9998H88.5C89.3284 83.9998 90 83.3282 90 82.4998C90 81.6715 89.3284 80.9998 88.5 80.9998ZM81.0001 80.9998H64.38L81.0001 57.2578V80.9998Z" fill="#FDFDFD"/>
<path d="M61.5 87.0002H43.7415L60.252 67.5587C60.2895 67.514 60.3246 67.4675 60.357 67.4192C63.4631 62.822 62.4285 56.598 58.002 53.2532C52.6198 49.386 45.1217 50.6143 41.2547 55.9965C39.7882 58.0374 38.9996 60.4871 39 63.0002C39 63.8285 39.6716 64.5002 40.5 64.5002C41.3284 64.5002 42 63.8285 42 63.0002C41.9994 58.0295 46.0286 53.9998 50.9991 53.9992C52.8831 53.999 54.7196 54.59 56.25 55.6892C59.3507 58.065 60.0728 62.4405 57.9 65.6867L39.357 87.5297C38.8209 88.1614 38.8986 89.1079 39.5303 89.6439C39.8012 89.8738 40.1447 90 40.5 90.0002H61.5C62.3284 90.0002 63 89.3285 63 88.5002C63 87.6718 62.3284 87.0002 61.5 87.0002Z" fill="#FDFDFD"/>
<path d="M40.533 79.5285C40.5643 78.7007 39.9184 78.0043 39.0906 77.973C39.0904 77.973 39.0902 77.973 39.09 77.973C19.5206 77.2466 3.81394 61.5681 3.0525 42H9C9.82838 42 10.5 41.3284 10.5 40.5C10.5 39.6716 9.82838 39 9 39H3.0525C3.80306 19.4664 19.4663 3.80381 39 3.054V7.5C39 8.32837 39.6716 9 40.5 9C41.3284 9 42 8.32837 42 7.5V3.054C61.2664 3.79912 76.8161 19.0552 77.928 38.304L72.078 32.454C71.4821 31.8784 70.5326 31.8949 69.957 32.4907C69.3956 33.072 69.3956 33.9936 69.957 34.575L78.33 42.948C78.4877 43.1389 78.6909 43.2868 78.921 43.3785C78.9797 43.3961 79.0393 43.4108 79.0995 43.422C79.2024 43.4591 79.3089 43.4848 79.4175 43.4985C79.4325 43.4985 79.446 43.4985 79.461 43.4985C79.476 43.4985 79.4895 43.4985 79.503 43.4985C79.6172 43.4899 79.7301 43.4678 79.839 43.4325C79.9007 43.425 79.9618 43.4136 80.022 43.398C80.2251 43.3258 80.4099 43.2101 80.5635 43.059L89.0505 34.575C89.6259 33.9791 89.6096 33.0296 89.0138 32.454C88.4325 31.8926 87.5109 31.8926 86.9295 32.454L80.934 38.445C79.8624 16.9444 62.1338 0.0526875 40.6065 0.021C40.569 0.0195 40.5375 0 40.5 0C40.4625 0 40.431 0.0195 40.3935 0.021C18.1091 0.0515625 0.0515625 18.1091 0.021 40.3935C0.021 40.431 0 40.4625 0 40.5C0 40.5375 0.0195 40.569 0.021 40.6065C0.0583125 62.3409 17.2596 80.1634 38.979 80.9715H39.0345C39.8406 80.9713 40.5024 80.334 40.533 79.5285Z" fill="#FDFDFD"/>
<path d="M60.6525 20.3476C60.0668 19.7621 59.1173 19.7621 58.5315 20.3476L42.4125 36.4651C41.1947 35.9221 39.8036 35.9221 38.586 36.4651L30.954 28.8331C30.3581 28.2577 29.4084 28.2742 28.833 28.8701C28.2716 29.4513 28.2716 30.3729 28.833 30.9541L36.45 38.5711C35.3805 40.8099 36.3285 43.4919 38.5674 44.5612C40.2859 45.3821 42.3352 45.0301 43.6815 43.6831C45.0351 42.341 45.3836 40.286 44.5485 38.5726L60.6525 22.4686C61.2381 21.8829 61.2381 20.9334 60.6525 20.3476ZM41.5609 41.5602C41.5607 41.5604 41.5607 41.5604 41.5605 41.5606C40.9672 42.1278 40.0327 42.1278 39.4395 41.5606C38.8536 40.9749 38.8536 40.0252 39.4391 39.4392C40.0249 38.8533 40.9746 38.8533 41.5605 39.4389C42.1464 40.0246 42.1464 40.9745 41.5609 41.5602Z" fill="#FDFDFD"/>
</svg>
