<svg width="90" height="90" viewBox="0 0 90 90" fill="none" xmlns="http://www.w3.org/2000/svg">
<g clip-path="url(#clip0)">
<path d="M45 -0.1875C25.9548 -0.16626 10.5212 15.2674 10.5 34.3125C10.5 52.9124 42.5325 87.8504 43.8977 89.3299C44.1812 89.6375 44.5811 89.8126 45 89.8126C45.419 89.8126 45.8181 89.6375 46.1023 89.3299C47.4675 87.8504 79.5001 52.9124 79.5001 34.3125C79.4788 15.2674 64.0452 -0.16626 45 -0.1875ZM45 86.0728C39.3003 79.6861 13.5 49.8992 13.5 34.3125C13.5 16.9153 27.6028 2.8125 45 2.8125C62.3972 2.8125 76.5 16.9153 76.5 34.3125C76.5 49.8992 50.6997 79.6861 45 86.0728Z" fill="#FDFDFD"/>
<path d="M45 20.8125C37.544 20.8125 31.5 26.8565 31.5 34.3125C31.5 41.7686 37.544 47.8125 45 47.8125C52.4561 47.8125 58.5 41.7686 58.5 34.3125C58.492 26.8601 52.4524 20.8206 45 20.8125ZM45 44.8125C39.2007 44.8125 34.5 40.1118 34.5 34.3125C34.5 28.5132 39.2007 23.8125 45 23.8125C50.7986 23.8125 55.5 28.5132 55.5 34.3125C55.4934 40.1089 50.7964 44.8059 45 44.8125Z" fill="#FDFDFD"/>
</g>
<defs>
<clipPath id="clip0">
<rect width="90" height="90" fill="white"/>
</clipPath>
</defs>
</svg>
