<svg width="90" height="90" viewBox="0 0 90 90" fill="none" xmlns="http://www.w3.org/2000/svg">
<g clip-path="url(#clip0)">
<path d="M28.5 33.375C35.956 33.375 42 27.3311 42 19.875C42 12.4189 35.956 6.375 28.5 6.375C21.0439 6.375 15 12.4189 15 19.875C15.008 27.3274 21.0476 33.3669 28.5 33.375ZM28.5 9.375C34.2993 9.375 39 14.0757 39 19.875C39 25.6743 34.2993 30.375 28.5 30.375C22.7007 30.375 18 25.6743 18 19.875C18.0073 14.0793 22.7043 9.38232 28.5 9.375Z" fill="#FDFDFD"/>
<path d="M69 31.875C74.7993 31.875 79.5 27.1743 79.5 21.375C79.5 15.5757 74.7993 10.875 69 10.875C63.2007 10.875 58.5 15.5757 58.5 21.375C58.5073 27.1707 63.2043 31.8677 69 31.875ZM69 13.875C73.1418 13.875 76.5 17.2332 76.5 21.375C76.5 25.5168 73.1418 28.875 69 28.875C64.8581 28.875 61.5 25.5168 61.5 21.375C61.5051 17.2346 64.8596 13.8801 69 13.875Z" fill="#FDFDFD"/>
<path d="M76.5 33.375H75C74.6023 33.375 74.2207 33.5332 73.9394 33.8144L68.9897 38.7641L63.9617 33.8144C63.6819 33.5383 63.3047 33.383 62.9114 33.3823H61.5C57.7397 33.3889 54.1523 34.9621 51.5998 37.7234C48.5911 34.9101 44.6191 33.3537 40.5 33.375C40.1023 33.375 39.7207 33.5332 39.4394 33.8144L28.5 44.7539L17.5605 33.8144C17.2793 33.5332 16.8977 33.375 16.5 33.375C7.39233 33.3874 0.0124515 40.7673 3.83353e-07 49.875V68.9253C-0.000732038 70.7058 1.0481 72.3193 2.67627 73.0407L25.4597 83.1643C27.394 84.0278 29.6045 84.0278 31.5388 83.1643L54.3237 73.0393C55.9512 72.3178 57 70.705 57 68.9253V66.3918L67.6728 70.5388C68.0925 70.6684 68.5298 70.7351 68.97 70.7358C69.4651 70.7321 69.9565 70.6545 70.4282 70.5044L87.123 64.0232C88.8625 63.3559 90.0073 61.6831 90 59.8198V46.875C89.9919 39.4226 83.9524 33.383 76.5 33.375ZM54 68.9253C54 69.5215 53.6462 70.0605 53.0998 70.2993L30.3149 80.4257C29.157 80.9428 27.8328 80.9428 26.6748 80.4257L3.90015 70.2993C3.35376 70.0605 3 69.5215 3 68.9253V49.875C3.00952 42.6562 8.68872 36.7185 15.9001 36.3882L27.4497 47.9384C28.0356 48.5244 28.9856 48.5244 29.5708 47.9384L41.1211 36.3882C43.4392 36.4914 45.6907 37.1938 47.6565 38.4272C48.7603 39.1113 49.7563 39.9543 50.6147 40.9292C52.8032 43.3938 54.0088 46.5783 54 49.875V68.9253ZM87 59.8198C87.0015 60.4431 86.6177 61.0027 86.0354 61.2253L69.4497 67.6706C69.1977 67.7585 68.9253 67.7717 68.6653 67.7087L57 63.1743V49.875C57 49.3938 56.9758 48.9148 56.9341 48.4394C56.9202 48.2893 56.8953 48.1289 56.8769 47.9729C56.8411 47.6565 56.8022 47.3401 56.748 47.0266C56.7151 46.842 56.6733 46.6604 56.6338 46.4773C56.5752 46.1967 56.5137 45.9162 56.4404 45.6408C56.3892 45.4482 56.3313 45.2578 56.2742 45.0688C56.1943 44.8066 56.1108 44.5473 56.0178 44.2903C55.9482 44.0969 55.875 43.9065 55.7974 43.716C55.6978 43.4685 55.5915 43.2238 55.4802 42.9807C55.3938 42.7917 55.3052 42.6042 55.2107 42.4196C55.0906 42.1816 54.9602 41.9487 54.8276 41.7165C54.7244 41.5363 54.624 41.3562 54.5164 41.1811C54.3662 40.9453 54.2161 40.7175 54.0527 40.4897C53.9399 40.3293 53.8337 40.1653 53.7165 40.0092C53.6924 39.9778 53.6733 39.9433 53.6492 39.9118C55.6414 37.6662 58.4978 36.3794 61.5 36.375H62.2947L67.9497 41.9428C68.5371 42.5215 69.4805 42.5185 70.0635 41.9355L75.6211 36.375H76.5C82.2956 36.3823 86.9927 41.0793 87 46.875V59.8198Z" fill="#FDFDFD"/>
</g>
<defs>
<clipPath id="clip0">
<rect width="90" height="90" fill="white"/>
</clipPath>
</defs>
</svg>
