<svg width="90" height="90" viewBox="0 0 90 90" fill="none" xmlns="http://www.w3.org/2000/svg">
<path d="M75.7867 30.7868C75.7867 13.7837 62.003 0 44.9999 0C27.9968 0 14.2131 13.7837 14.2131 30.7868C9.81747 31.3341 5.66125 34.2075 5.66125 40.878V56.9555C5.66125 64.4812 10.9292 67.2178 15.9235 67.2178H20.8836C21.8282 67.2178 22.594 66.452 22.594 65.5074V32.3945C22.594 31.45 21.8282 30.6842 20.8836 30.6842H17.6339C17.6339 15.5704 29.8862 3.31813 44.9999 3.31813C60.1136 3.31813 72.3659 15.5704 72.3659 30.6842H69.1162C68.1717 30.6842 67.4058 31.45 67.4058 32.3945V65.4561C67.4058 66.4007 68.1717 67.1665 69.1162 67.1665H72.3659C71.887 78.9168 66.2428 81.6705 54.9714 82.1665V81.0205C54.9714 79.1312 53.44 77.5998 51.5507 77.5998H40.7924C38.9031 77.5998 37.3716 79.1312 37.3716 81.0205V86.5792C37.3716 88.4686 38.9031 90 40.7924 90H51.5849C53.4742 90 55.0056 88.4686 55.0056 86.5792V85.5872C65.8494 85.0912 75.2223 82.8506 75.7867 67.0639C80.1824 66.5165 84.3386 63.6431 84.3386 56.9726V40.8951C84.3386 34.1904 80.1995 31.3341 75.7867 30.7868ZM19.1732 33.9852V63.7457H15.838C13.3066 63.7457 8.99649 62.8563 8.99649 56.9042V40.8267C8.99649 34.9259 13.2553 33.9852 15.838 33.9852H19.1732ZM51.5849 83.9966V86.5964H40.7924V81.0376H51.5849V83.9966ZM80.9178 56.9555C80.9178 62.8563 76.659 63.797 74.0763 63.797H70.8266V34.1049H74.1618C76.6932 34.1049 81.0033 34.9943 81.0033 40.9464L80.9178 56.9555Z" fill="white"/>
</svg>
